<?xml version="1.0" encoding="iso-8859-1"?>
<!-- Generator: Adobe Illustrator 16.0.0, SVG Export Plug-In . SVG Version: 6.00 Build 0)  -->
<!DOCTYPE svg PUBLIC "-//W3C//DTD SVG 1.1//EN" "http://www.w3.org/Graphics/SVG/1.1/DTD/svg11.dtd">
<svg version="1.1" id="Capa_1" xmlns="http://www.w3.org/2000/svg" xmlns:xlink="http://www.w3.org/1999/xlink" x="0px" y="0px"
	 width="316.796px" height="316.796px" viewBox="0 0 316.796 316.796" style="enable-background:new 0 0 316.796 316.796;"
	 xml:space="preserve">
<g>
	<path d="M281.697,0H35.1C15.747,0,0,15.747,0,35.1v30.597V251.1v30.597c0,19.354,15.747,35.1,35.1,35.1h246.597
		c19.354,0,35.1-15.746,35.1-35.1V251.1V65.697V35.1C316.796,15.747,301.05,0,281.697,0z M52.284,81.896
		c3.443,10.645,13.336,18.415,25.115,18.415c7.398,0,14.083-3.063,18.9-7.971c4.817,4.907,11.501,7.971,18.9,7.971
		c11.778,0,21.671-7.77,25.115-18.415h63.168c3.449,10.645,13.342,18.415,25.117,18.415s21.669-7.77,25.117-18.415h46.881v68.402
		h-52.845c-3.939-9.719-13.442-16.611-24.553-16.611c-6.851,0-13.047,2.684-17.756,6.961c-4.852-5.345-11.792-8.765-19.56-8.765
		c-7.398,0-14.085,3.069-18.899,7.971c-4.815-4.907-11.502-7.971-18.9-7.971c-11.775,0-21.663,7.771-25.109,18.415H16.2V81.896
		H52.284z M67.083,73.796c0-3.298,1.587-6.209,4.008-8.1c1.748-1.366,3.921-2.21,6.307-2.21s4.559,0.849,6.307,2.21
		c2.42,1.891,4.008,4.801,4.008,8.1c0,3.299-1.582,6.21-4.003,8.1c-1.748,1.366-3.921,2.215-6.312,2.215
		c-2.392,0-4.564-0.849-6.312-2.215C68.666,80.006,67.083,77.095,67.083,73.796z M125.513,73.796c0,3.299-1.582,6.21-4.002,8.1
		c-1.749,1.366-3.921,2.215-6.312,2.215c-2.391,0-4.564-0.849-6.312-2.215c-2.421-1.89-4.003-4.801-4.003-8.1
		c0-3.298,1.587-6.209,4.008-8.1c1.748-1.366,3.921-2.21,6.307-2.21s4.559,0.849,6.307,2.21
		C123.926,67.587,125.513,70.498,125.513,73.796z M218.284,73.796c0-3.298,1.587-6.209,4.008-8.1c1.745-1.366,3.918-2.21,6.307-2.21
		s4.562,0.849,6.308,2.21c2.42,1.891,4.008,4.801,4.008,8.1c0,3.299-1.582,6.21-4.003,8.1c-1.751,1.366-3.924,2.215-6.312,2.215
		s-4.562-0.849-6.312-2.215C219.866,80.006,218.284,77.095,218.284,73.796z M286.674,234.9
		c-2.848-11.569-13.236-20.213-25.676-20.213c-7.398,0-14.086,3.063-18.9,7.968c-4.814-4.898-11.501-7.968-18.899-7.968
		c-12.44,0-22.829,8.644-25.677,20.213H97.675c-2.845-11.569-13.239-20.213-25.676-20.213s-22.832,8.644-25.677,20.213H16.2v-68.401
		h106.774c3.446,10.646,13.334,18.414,25.109,18.414c7.398,0,14.091-3.068,18.9-7.968c4.814,4.904,11.501,7.968,18.899,7.968
		c6.851,0,13.047-2.684,17.761-6.966c4.857,5.348,11.786,8.765,19.555,8.765c12.439,0,22.828-8.638,25.676-20.213h51.722V234.9
		H286.674z M271.313,241.197c0,4.74-3.232,8.701-7.594,9.903c-0.875,0.242-1.777,0.411-2.727,0.411s-1.855-0.174-2.726-0.411
		c-4.361-1.202-7.594-5.163-7.594-9.903c0-2.384,0.844-4.546,2.209-6.297c1.888-2.426,4.799-4.013,8.11-4.013
		c3.312,0,6.223,1.587,8.111,4.013C270.469,236.651,271.313,238.813,271.313,241.197z M212.883,241.197
		c0-2.384,0.844-4.546,2.21-6.297c1.888-2.426,4.799-4.013,8.11-4.013s6.223,1.587,8.11,4.013c1.36,1.751,2.21,3.913,2.21,6.297
		c0,4.74-3.232,8.701-7.594,9.903c-0.87,0.242-1.777,0.411-2.727,0.411s-1.851-0.174-2.727-0.411
		C216.116,249.898,212.883,245.937,212.883,241.197z M82.313,241.197c0,4.74-3.229,8.701-7.594,9.903
		c-0.875,0.242-1.777,0.411-2.726,0.411s-1.854-0.174-2.727-0.411c-4.364-1.202-7.594-5.163-7.594-9.903
		c0-2.384,0.844-4.546,2.209-6.297c1.891-2.426,4.802-4.013,8.111-4.013s6.22,1.587,8.11,4.013
		C81.469,236.651,82.313,238.813,82.313,241.197z M137.777,158.398c0-3.298,1.587-6.209,4-8.1c1.751-1.366,3.921-2.215,6.307-2.215
		c2.389,0,4.564,0.849,6.312,2.215c2.42,1.891,4.002,4.802,4.002,8.1c0,3.296-1.582,6.207-4.002,8.101
		c-1.748,1.365-3.918,2.215-6.312,2.215c-2.386,0-4.556-0.85-6.307-2.215C139.359,164.605,137.777,161.694,137.777,158.398z
		 M196.199,158.398c0,3.296-1.582,6.207-4.003,8.101c-1.751,1.365-3.918,2.215-6.312,2.215c-2.389,0-4.556-0.85-6.307-2.215
		c-2.421-1.894-4.003-4.805-4.003-8.101c0-3.298,1.593-6.209,4.003-8.1c1.751-1.366,3.918-2.215,6.307-2.215
		s4.562,0.849,6.312,2.215C194.617,152.189,196.199,155.1,196.199,158.398z M233.513,160.197c0,2.384-0.844,4.551-2.21,6.302
		c-1.888,2.426-4.799,4.013-8.104,4.013c-3.307,0-6.218-1.587-8.105-4.013c-1.36-1.751-2.21-3.918-2.21-6.302
		c0-4.736,3.232-8.693,7.594-9.898c0.876-0.243,1.777-0.411,2.727-0.411s1.856,0.174,2.727,0.411
		C230.281,151.503,233.513,155.461,233.513,160.197z M300.596,281.697c0,10.42-8.479,18.899-18.899,18.899H35.1
		c-10.423,0-18.9-8.479-18.9-18.899V251.1h31.245c3.937,9.719,13.439,16.611,24.553,16.611c11.113,0,20.616-6.893,24.553-16.611
		h102.094c3.939,9.719,13.442,16.611,24.554,16.611c7.398,0,14.085-3.063,18.899-7.974c4.814,4.91,11.502,7.974,18.9,7.974
		c11.111,0,20.613-6.893,24.553-16.611h15.045V281.697z M253.715,65.697c-3.448-10.645-13.342-18.41-25.117-18.41
		s-21.668,7.766-25.117,18.41h-63.168c-3.443-10.645-13.336-18.41-25.115-18.41c-7.398,0-14.083,3.064-18.9,7.971
		c-4.817-4.902-11.501-7.971-18.9-7.971c-11.778,0-21.666,7.766-25.115,18.41H16.2V35.1c0-10.423,8.477-18.9,18.9-18.9h246.597
		c10.42,0,18.899,8.478,18.899,18.9v30.597H253.715z"/>
</g>
<g>
</g>
<g>
</g>
<g>
</g>
<g>
</g>
<g>
</g>
<g>
</g>
<g>
</g>
<g>
</g>
<g>
</g>
<g>
</g>
<g>
</g>
<g>
</g>
<g>
</g>
<g>
</g>
<g>
</g>
</svg>
