<?xml version="1.0" encoding="utf-8"?>
<!-- Generator: Adobe Illustrator 19.0.0, SVG Export Plug-In . SVG Version: 6.00 Build 0)  -->
<svg version="1.1" id="Warstwa_1" xmlns="http://www.w3.org/2000/svg" xmlns:xlink="http://www.w3.org/1999/xlink" x="0px" y="0px"
	 viewBox="0 0 2700 2700" style="enable-background:new 0 0 2700 2700;" xml:space="preserve">
<style type="text/css">
	.st0{fill:none;stroke:#3F403F;stroke-width:6;stroke-miterlimit:10;}
</style>
<g id="XMLID_51_">
	<path id="XMLID_71_" class="st0" d="M992.2,1096.6l866.8,374.1c43.5,18.7,93.8-1.2,112.6-44.8l402.2-932.2
		c18.8-43.5-1.2-93.8-44.6-112.6l-866.8-374c-43.4-18.8-93.9,1.2-112.6,44.8L947.5,984C928.8,1027.4,948.8,1077.9,992.2,1096.6z
		 M1226.1,551.3c103.5-240,382.1-350.7,622.2-247c239.9,103.6,350.6,382.1,247,622.1c-103.6,240.1-382.3,350.7-622.2,247.2
		C1233,1069.8,1122.4,791.3,1226.1,551.3z"/>
	<path id="XMLID_68_" class="st0" d="M1412.2,877.8c12.5,5.4,23.1,5.6,31.7,0.8c8.6-5,21.4-16.2,38.1-33.6l42.8-44.9l169.5,73.1
		l-2.7,60.9c-0.1,7.6-0.2,16.5-0.1,26.4c0.1,10,0.7,17.8,2.1,23.2c1.6,5.5,4.1,10.4,7.9,14.9c3.8,4.3,9,8,15.6,10.9
		c11.3,4.8,22.8,5,34.2,0.3c11.6-4.5,19.5-11.6,23.6-21.3c4-9.3,6.1-26,6.5-50.2l7.2-315.8c0.7-15.7,1.2-28.3,1.3-37.7
		c0.2-9.5-0.7-18.7-2.5-27.9c-1.7-9.1-5.6-17.5-11.5-25.4c-6.1-7.8-14.9-14.3-26.6-19.4c-11.5-5-22.2-7-31.9-5.9
		c-9.8,1.1-18.7,4.1-26.5,9.2c-8.1,5.1-16.5,12.3-25.4,21.3c-9.1,9.1-16.7,16.8-23.1,23.2L1419,784.6c-9.1,8.9-15.9,16-20.3,21.2
		c-4.5,5.2-8,10.8-10.4,16.5c-4.2,9.7-4,20.4,0.8,31.6C1393.9,865.3,1401.5,873.2,1412.2,877.8z M1710.3,600.9L1698.8,800
		l-124.3-53.8L1710.3,600.9z"/>
	<path id="XMLID_65_" class="st0" d="M1082,1174.3c-17.7-43.9-67.6-64.9-111.5-47.2l-875,354.3c-43.8,17.8-65,67.6-47.2,111.5
		l381,941.2c17.7,43.8,67.6,64.9,111.5,47.1l875.1-354.3c43.8-17.8,65-67.5,47.2-111.4L1082,1174.3z M933.4,2293
		c-242.4,98.1-518.4-18.7-616.5-261.1c-98.1-242.3,18.7-518.3,261.1-616.4c242.3-98.2,518.4,18.8,616.5,261.1
		C1292.6,1918.9,1175.7,2194.9,933.4,2293z"/>
	<path id="XMLID_57_" class="st0" d="M842.4,1795.5c34.1-36.5,42.7-75.8,25.7-118c-5-12.2-11.6-22.9-20.2-32.4
		c-8.5-9.3-18.3-17-29.7-23.1c-11.4-5.9-23.2-9.8-35.5-11.8c-14.6-2.3-29.7-1.7-45.5,1.8c-15.7,3.4-33.6,9.2-53.7,17.3l-136.3,55.2
		c-18.2,7.4-29.7,16.7-34.4,28.2c-5,11.5-3.6,26.4,4,45l128,316.2c7.4,18.2,16.7,29.9,28,34.9c11.3,5.1,26.3,3.9,44.9-3.6
		l128.5-52.1c22.3-9,41.2-17.9,56.9-26.9c15.7-8.8,29-18.7,39.6-29.2c16.9-17.3,27.4-37.8,31.9-61.5c4.4-23.8,1.9-47.4-7.6-70.9
		C946.3,1813.7,904.9,1790.7,842.4,1795.5z M650.9,1843.7l-44.1-108.8l69.2-28c31-12.6,55.5-18.4,73.4-17.6
		c17.9,0.8,31.3,12,39.8,33.2c4.1,9.8,5.3,19.9,3.8,29.9c-1.6,13.7-7.3,24.9-17.3,33.7c-9.9,8.6-25.5,17.3-46.7,26L650.9,1843.7z
		 M816.8,1990.5l-91.5,37l-49.8-122.8l88.8-35.9c29.7-12,53.8-16.3,72.7-12.7c18.8,3.5,32.4,16,41.1,37.1
		C894.8,1934.9,874.4,1967.2,816.8,1990.5z"/>
	<path id="XMLID_53_" class="st0" d="M2528.1,1492.4h-944.1c-47.3,0-85.6,38.4-85.6,85.7v1015.5c0,47.3,38.3,85.7,85.6,85.7h944.1
		c47.3,0,85.6-38.4,85.6-85.7V1578.1C2613.8,1530.8,2575.4,1492.4,2528.1,1492.4z M2056,2559.2c-261.3,0-473.3-211.9-473.3-473.3
		c0-261.5,212-473.4,473.3-473.4c261.5,0,473.4,211.9,473.4,473.4C2529.4,2347.3,2317.5,2559.2,2056,2559.2z"/>
	<path id="XMLID_52_" class="st0" d="M2211.6,2120.8c-12.8,0-22,3.8-27.9,11.3c-5.9,7.6-10.7,17.4-14.6,29.3
		c-9.2,25.3-23.1,44.7-41.3,57.8c-18.3,13-40.6,19.6-67,19.6c-24.3,0-45.5-5.7-63.7-17.2c-18.1-11.6-32.2-29.1-42.1-52.6
		c-9.9-23.3-14.9-52.7-14.9-88c0-52.8,11.3-93.6,33.6-122.3c22.4-28.6,52.5-43,90.3-43c23.8,0,43.7,5.6,59.8,16.7
		c16.3,11.2,30.3,28,42.3,50.5c7.2,13.6,13.7,23.2,19.7,28.8c5.9,5.6,14.6,8.4,26.5,8.4c10.4,0,19.5-4.1,26.9-12.1
		c7.5-8,11.2-17.4,11.2-27.8c0-19.1-7.6-39.6-22.9-61.1c-15.2-21.6-37.3-39.7-65.9-54.4c-28.7-14.5-61.4-22-98.1-22
		c-30.2,0-58.5,5.4-85.2,16.2c-26.5,10.7-49.7,26.3-69.6,46.9c-19.7,20.5-35.1,45.2-45.7,74.1c-10.6,28.9-15.9,61.6-15.9,98.2
		c0,22.4,2.1,43.8,6.4,63.7c4.2,20,10.5,38.8,19,56.5c8.5,17.5,18.7,33.6,30.7,47.8c13.3,15.7,28.1,28.4,44,37.9
		c16,9.6,33.8,16.7,53.4,21.2c19.6,4.6,41.4,6.8,65.4,6.8c31.4,0,59.2-5,83-15.1c23.7-10.3,43.2-23.3,58.5-39.6
		c15.2-16.1,26.5-32.7,33.6-49.5c7.1-16.7,10.7-32.5,10.7-47c0-11.2-3.9-20.8-11.7-28.4C2231.9,2124.7,2222.5,2120.8,2211.6,2120.8z
		"/>
</g>
</svg>
