<?xml version="1.0" encoding="utf-8"?>
<!-- Generator: Adobe Illustrator 19.0.0, SVG Export Plug-In . SVG Version: 6.00 Build 0)  -->
<svg version="1.1" id="Warstwa_1" xmlns="http://www.w3.org/2000/svg" xmlns:xlink="http://www.w3.org/1999/xlink" x="0px" y="0px"
	 viewBox="0 0 2700 2700" style="enable-background:new 0 0 2700 2700;" xml:space="preserve">
<style type="text/css">
	.st0{fill:none;stroke:#3F403F;stroke-width:6;stroke-miterlimit:10;}
</style>
<g id="XMLID_25_">
	<path id="XMLID_32_" class="st0" d="M1941.6,743.1l-1151.4,7.8c-43.4,0.3-78.6,35.9-78.2,79.4l1,133.2
		c0.2,43.4,35.8,78.6,79.3,78.3l1151.5-7.9c43.4-0.3,78.5-35.9,78.2-79.3l-0.8-133.3C2020.6,777.8,1985.1,742.7,1941.6,743.1z
		 M1967.3,955c0,13.4-10.8,24.4-24.2,24.3l-1151.3,8c-13.3,0-24.3-10.8-24.4-24.1l-0.9-133.3c0-13.5,10.7-24.4,24.1-24.6l1151.4-7.8
		c13.4-0.1,24.3,10.7,24.4,24.1L1967.3,955z"/>
	<path id="XMLID_31_" class="st0" d="M1441.7,174.1l-0.6-90.8c-0.3-44-36.2-79.5-80.2-79.1c-44,0.3-79.5,36.1-79.1,80.2l0.6,90.9
		c-265.6,40.1-468.9,268.2-471,543.7l1108.7-7.6C1914.1,435.9,1707.8,210.6,1441.7,174.1z"/>
	<path id="XMLID_26_" class="st0" d="M1920.2,1075l-1104,7.6c0,1.6-0.2,3.1-0.2,4.6L826,2541.5c0.5,85.4,70.1,154.2,155.6,153.5
		l795.2-5.4c85.4-0.6,154.2-70.2,153.6-155.6l-10-1454.4C1920.4,1078.1,1920.2,1076.6,1920.2,1075z M1800.9,1539.4l-113.7,0.8
		l0.9,109l113.5-0.8l0.5,54.6l-113.6,0.7l0.7,109.1l113.7-0.8l0.4,54.5l-113.7,0.8l0.7,109.1l113.7-0.8l0.3,54.5l-113.6,0.8
		l0.7,90.9l113.5-0.8l0.4,54.6l-113.6,0.7l0.7,109.1l113.6-0.8l0.5,54.5l-113.8,0.8l0.9,122.7l-54.6,0.3l-0.8-122.6l-113.7,0.7
		l-0.4-54.5l113.7-0.7L1637,2177l-113.6,0.7l-0.4-54.6l113.6-0.7l-0.7-90.9l-113.5,0.8l-0.3-54.6l113.6-0.7l-0.7-109l-113.6,0.8
		l-0.4-54.5l113.6-0.9l-0.7-109l-113.6,0.7l-0.5-54.6l113.6-0.7l-0.6-109.1l-113.6,0.8l-0.4-54.5l113.5-0.8l-0.7-113.6l54.5-0.4
		l0.8,113.5l113.7-0.7L1800.9,1539.4z"/>
</g>
</svg>
