<?xml version="1.0" encoding="utf-8"?>
<!-- Generator: Adobe Illustrator 19.0.0, SVG Export Plug-In . SVG Version: 6.00 Build 0)  -->
<svg version="1.1" id="Warstwa_1" xmlns="http://www.w3.org/2000/svg" xmlns:xlink="http://www.w3.org/1999/xlink" x="0px" y="0px"
	 viewBox="0 0 2700 2700" style="enable-background:new 0 0 2700 2700;" xml:space="preserve">
<style type="text/css">
	.st0{fill:none;stroke:#404040;stroke-width:6;stroke-miterlimit:10;}
</style>
<g id="XMLID_58_">
	<polygon id="XMLID_132_" class="st0" points="188,504.2 352.9,481 352.9,1000.4 188,1005.1 	"/>
	<polygon id="XMLID_131_" class="st0" points="2351.9,481 2512.3,504.2 2512.3,1057.9 2351.9,988.2 	"/>
	<line id="XMLID_128_" class="st0" x1="239.9" y1="2010.8" x2="312.4" y2="2289"/>
	<line id="XMLID_125_" class="st0" x1="2432.1" y1="2045.1" x2="2304.3" y2="2289"/>
	<line id="XMLID_124_" class="st0" x1="2314" y1="2289" x2="302.7" y2="2289"/>
	<line id="XMLID_123_" class="st0" x1="302.7" y1="2204.1" x2="2343.6" y2="2206.7"/>
	<path id="XMLID_122_" class="st0" d="M229.2,995.9c-95.5,27.9-115.2,62.9-170.3,172.3c-44.8,88.8-65,340.9-40,437.8
		c23.4,90.7,107,270.6,165.4,344.4c92,116.2,229.9,193.5,376.1,217.8s299.5-3.6,431-71.9c66-34.3,127.2-78.6,197.4-103.3
		c99.5-35,213.5-26.5,306.7,22.9c45.6,24.2,85.9,57.3,129.2,85.3c254.1,164.4,620,128.2,836.9-82.9c46.4-45.2,86.1-96.9,122.1-150.7
		c24.3-36.3,47.1-74.1,61.6-115.3c19.9-56.2,23.7-116.6,26.6-176.2c6.4-130.4,8.1-267-49.4-384.3
		c-63.6-129.9-206.9-222.1-350.8-207.7c-35.4,3.6-69.8,13-103.9,23.4c-136.3,41.4-269.4,97.9-384.4,182
		c-188.4,137.7-320,346.6-379.2,572.3c-41.1,0-82.1,0-123.2,0c-30.8-88-61.9-176.7-109.3-257c-93.3-157.8-245.5-274.2-410.2-354.6
		C596.8,1069.7,424.7,982.6,229.2,995.9"/>
	<path id="XMLID_121_" class="st0" d="M174.8,1093c-26.1,248.5-27.2,492.2,101.4,706.5c74.2,123.6,238,251.3,377.6,287.2
		c104.3,26.8,217.6,5.5,312.2-46c94.6-51.5,171.6-131.4,231.7-220.8"/>
	<path id="XMLID_144_" class="st0" d="M2515.4,1116.2c50.7,115.8,63.3,241.7,50.2,365.5c-14.3,136.2-32.7,230.3-90,364.7
		c-42.9,100.6-169.6,167.6-272.3,205.2c-102.7,37.6-213.8,47-323.1,43.2c-50.8-1.7-102.3-6.4-149.5-25.3
		c-60.7-24.3-215.3-176.7-253-248.9"/>
</g>
</svg>
