<?xml version="1.0" encoding="utf-8"?>
<!-- Generator: Adobe Illustrator 19.0.0, SVG Export Plug-In . SVG Version: 6.00 Build 0)  -->
<svg version="1.1" id="Warstwa_1" xmlns="http://www.w3.org/2000/svg" xmlns:xlink="http://www.w3.org/1999/xlink" x="0px" y="0px"
	 viewBox="0 0 2700 2700" style="enable-background:new 0 0 2700 2700;" xml:space="preserve">
<style type="text/css">
	.st0{fill:none;stroke:#3F403F;stroke-width:6;stroke-miterlimit:10;}
</style>
<g id="XMLID_56_">
	<path id="XMLID_10_" class="st0" d="M2675.6,1065l-18.9-105.1c-2.7-15.5-15.6-26.3-28.7-23.9l-330.6,59
		c-13.1,2.4-21.5,17-18.7,32.5l18.7,105.1c2.9,15.6,15.8,26.3,28.9,23.8l330.5-59C2669.9,1095,2678.3,1080.5,2675.6,1065z"/>
	<path id="XMLID_9_" class="st0" d="M389.3,1148.7l15.8-105.5c2.3-15.7-6.4-29.9-19.6-32L53.3,961.7c-13.1-2.1-25.8,9.1-28.2,24.7
		L9.4,1092.1c-2.3,15.7,6.6,30,19.7,31.9l332.1,49.6C374.4,1175.5,387.1,1164.4,389.3,1148.7z"/>
	<path id="XMLID_8_" class="st0" d="M2266.6,1172.7l-28.9-181c-2.1-13.4,7.1-26.1,20.4-28.2l347.1-55.5l7.2-253.5
		c0.1-1,0.4-1.9,0.4-2.7c0-0.5-0.2-1.1-0.2-1.7l0.7-22c0,0-1.5,0.7-3.8,1.5c-55.9-195-846-247.6-1271-247.6
		c-440.8,0-1274.3,56.5-1274.3,269.7c0,0.1,0,0.2,0,0.3c-3.7-1.1-6.2-2.1-6.2-2.1l10,277.4l350,46.1c13.5,1.6,22.9,14,21.2,27.5
		l-23.9,181.7c-1.7,13.5-14.2,23-27.6,21.3L76.5,1163l9,248.8l9.3,34c2.6,9.2,64.4,228.4,301.6,465.4
		c235.2,235.1,456.6,328.6,465.9,332.5l38.2,15.7l2.4-5.1c75.6,32.1,244.6,93,421.8,82.3c178.3-10.8,340.4-74.1,411.2-105.4
		c9.3-3.9,286-77.3,521-312.3c236.6-236.6,319.7-501.1,323.2-512.2l11.7-38.3l6.5-223.8l-303.6,48.5
		C2281.4,1195.3,2268.8,1186.2,2266.6,1172.7z"/>
	<path id="XMLID_7_" class="st0" d="M457.8,1849.9c-167.7-167.8-241.8-327.2-267.6-394.1l44.2-22.6
		c67.6,20.4,158.8,58.3,272.3,128.9c193.2,120.2,292.2,417.2,332.4,573.5C761.1,2094.2,612,2004.1,457.8,1849.9z"/>
	<path id="XMLID_5_" class="st0" d="M1338.5,834.5C578.6,834.5,160.7,715.4,149.7,652c11.1-63.9,428.9-182.9,1188.8-182.9
		c759.8,0,1177.7,119,1188.7,182.5C2516.2,715.4,2098.4,834.5,1338.5,834.5z"/>
	<path id="XMLID_3_" class="st0" d="M2483.4,1418.8c-31,78.9-117.6,268.5-287.8,438.7c-167.2,167.2-337.1,242.4-408.1,278.4
		l-2.3-3.9c18.5-102.1,64.8-281.7,176.6-432.4c116.5-157.1,367.7-246.8,508-286.4L2483.4,1418.8z"/>
</g>
</svg>
