<?xml version="1.0" encoding="utf-8"?>
<!-- Generator: Adobe Illustrator 19.0.0, SVG Export Plug-In . SVG Version: 6.00 Build 0)  -->
<svg version="1.1" id="Warstwa_1" xmlns="http://www.w3.org/2000/svg" xmlns:xlink="http://www.w3.org/1999/xlink" x="0px" y="0px"
	 viewBox="0 0 2700 2700" style="enable-background:new 0 0 2700 2700;" xml:space="preserve">
<style type="text/css">
	.st0{fill:none;stroke:#3F403F;stroke-miterlimit:10;}
</style>
<g id="XMLID_1_">
	<polygon id="XMLID_99_" class="st0" points="1056.3,939.9 1899.6,1150.5 2191.2,664.3 2455.5,823.1 2469.5,0 1749.8,399.6 
		2014,558.4 1801.1,913.5 993.2,711.4 126,1578.3 271.9,1724.1 	"/>
	<polygon id="XMLID_98_" class="st0" points="818.3,2683 1231,2683 1231,1196.1 1119.7,1168.4 818.3,1469.8 	"/>
	<polygon id="XMLID_97_" class="st0" points="199.1,1942.9 199.1,2683 611.9,2683 611.9,1676.3 271.9,2016 	"/>
	<polygon id="XMLID_96_" class="st0" points="2056.7,1289.8 2056.7,2683 2469.5,2683 2469.5,1072.1 2262,947.6 	"/>
	<polygon id="XMLID_95_" class="st0" points="1850.2,2683 1850.2,1351 1437.4,1248 1437.4,2683 	"/>
	<path id="XMLID_76_" class="st0" d="M1850.2,2683"/>
</g>
</svg>
