<?xml version="1.0" encoding="utf-8"?>
<!-- Generator: Adobe Illustrator 19.0.0, SVG Export Plug-In . SVG Version: 6.00 Build 0)  -->
<svg version="1.1" id="Warstwa_1" xmlns="http://www.w3.org/2000/svg" xmlns:xlink="http://www.w3.org/1999/xlink" x="0px" y="0px"
	 viewBox="0 0 2700 2700" style="enable-background:new 0 0 2700 2700;" xml:space="preserve">
<style type="text/css">
	.st0{fill:none;stroke:#3F403F;stroke-width:6;stroke-miterlimit:10;}
</style>
<g id="XMLID_1_">
	<path id="XMLID_117_" class="st0" d="M2011.2,573.5l152.4,440l-14.1,4.9l43,203.7l12.2-4.2l7.8,22.4l-59.5,20.6
		c-5.7,2.1-10.8,6.3-13.6,12.2c-2.9,6-3.1,12.5-1.1,18.3l201.5,582l-61.5,29.9l7.7,22.1l64.2-22.2l54.7-19l77.5,223.9l-49.2,35.1
		l12.3,35.6l120.9-41.9l120.9-41.7l-12.4-35.7l-60.3,2.8l-77.5-223.9l54.7-19l64.2-22.2l-7.7-22.1l-66.8,14.5l-201.6-582
		c-2-5.8-6.2-10.9-12.2-13.7c-6-2.9-12.5-3.1-18.3-1.1l-59.5,20.6l-7.7-22.4l12.3-4.3l-92.1-186.7l-14.2,4.9l-124.3-358.8
		L2011.2,573.5z M2350.9,1226.3l197.3,569.8l-23.1,8l-132.1,45.8l-23.1,8l-49.3-142.4l23.1-8l100.1-34.7l-8.4-24l-100.1,34.6
		l-23.1,8l-19.6-56.6l23.1-8l100.1-34.6l-8.3-24.2l-100.1,34.7l-23.1,8l-19.6-56.6l123.3-42.7l-8.4-24.2l-123.2,42.8l-19.6-56.7
		l123.2-42.6l-8.4-24.2l-123.1,42.7l-19.7-56.7l123.3-42.7l-8.4-24l-123.2,42.6l-27.9-80.5l50.5-17.5l77.5-26.8L2350.9,1226.3z"/>
	<g id="XMLID_113_">
		<path id="XMLID_116_" class="st0" d="M1788.7,1957.3c-11.7,80.2-91.2,99.5-145,99.2c-80.1-0.4-145-44.4-145-99.2
			c0-1.1,0,51.2,0,58c0,54.8,64.9,99.2,145,99.2c80.1,0,145-44.4,145-99.2C1788.7,2008.5,1789,1955.2,1788.7,1957.3z"/>
		<path id="XMLID_115_" class="st0" d="M1781.4,1939.4c-4.7-51.9-67.7-93-144.7-93c-6.3,0-12.5,0.3-18.6,0.8l28.2,57.1l62.6,126.8
			c0,0.2,0,0.3,0,0.5c0.1,0,0.2-0.1,0.2-0.1c43.4-17.1,72.6-49.2,72.6-86C1781.7,1943.6,1781.6,1941.5,1781.4,1939.4z"/>
		<path id="XMLID_114_" class="st0" d="M1677.3,2040.6l-68.6-138.8l-23.2-47.1c-46,15.9-78,48-79.8,85.3c-0.1,1.1-0.1,2.2-0.1,3.3
			c0,54.8,64.9,99.2,145,99.2c9.2,0,18.1-0.6,26.8-1.7c0,0,0.1,0,0.1,0C1677.5,2040.7,1677.4,2040.6,1677.3,2040.6z"/>
	</g>
	<g id="XMLID_109_">
		<path id="XMLID_112_" class="st0" d="M1755.4,1692.6c-81-0.3-111.3-76.4-118.6-129.7c-10.9-79.4,23.7-149.8,77.9-157.5
			c1.1-0.2-50.7,7.2-57.4,8.1c-54.3,7.7-89.2,78.2-77.9,157.5c11.2,79.3,64.3,137.4,118.6,129.7
			C1704.8,1699.8,1757.5,1692.6,1755.4,1692.6z"/>
		<path id="XMLID_111_" class="st0" d="M1772.1,1682.9c50.7-11.9,82.6-80,71.8-156.3c-0.9-6.3-2.1-12.4-3.5-18.3l-52.6,35.9
			l-116.8,79.8c-0.2,0-0.3,0-0.5,0c0,0.1,0.1,0.1,0.1,0.2c23.1,40.6,58.9,65,95.3,59.9C1768.1,1683.8,1770.1,1683.3,1772.1,1682.9z"
			/>
		<path id="XMLID_110_" class="st0" d="M1657.4,1594l127.8-87.3l43.3-29.6c-22.1-43.3-58.4-70.5-95.7-67.1c-1.1,0.1-2.2,0.2-3.3,0.4
			c-54.3,7.7-89.2,78.2-77.9,157.5c1.3,9.1,3.1,17.9,5.5,26.3c0,0,0,0.1,0,0.1C1657.3,1594.2,1657.3,1594.1,1657.4,1594z"/>
	</g>
	<g id="XMLID_105_">
		<path id="XMLID_108_" class="st0" d="M1210.6,1837.4c-35.7-55.3,2.6-109.7,35.7-138.3c49.2-42.6,112.5-50.4,141.8-16.8
			c0.6,0.7-27.4-31.3-31-35.5c-29.3-33.5-92.8-26-141.8,16.8c-49,42.8-65,104.7-35.7,138.3
			C1183.3,1806.1,1211.6,1838.9,1210.6,1837.4z"/>
		<path id="XMLID_107_" class="st0" d="M1224.7,1844.5c30.6,29.2,91.1,20.7,138.3-20.5c3.9-3.4,7.5-6.9,11-10.5l-47.8-19.9
			l-106.2-44.1c-0.1-0.1-0.2-0.2-0.2-0.3c0,0.1-0.1,0.1-0.1,0.2c-17.4,33.7-18.1,68.9,1.5,91.4
			C1222.3,1842.1,1223.5,1843.3,1224.7,1844.5z"/>
		<path id="XMLID_106_" class="st0" d="M1234.3,1726.9l116.2,48.3l39.4,16.4c19.7-34.3,22.1-71.1,3.2-94.9c-0.6-0.7-1.1-1.4-1.7-2.1
			c-29.3-33.5-92.8-26-141.8,16.8c-5.6,4.9-10.8,10.1-15.5,15.4c0,0-0.1,0.1-0.1,0.1C1234.1,1726.9,1234.2,1726.9,1234.3,1726.9z"/>
	</g>
	<path id="XMLID_102_" class="st0" d="M1224.7,1305.8l-272.1-341c-16.9-21.3-51.7-21.7-77.6-1c-25.9,20.7-33.2,54.6-16.2,75.9
		l18.7,23.4L68.4,1708.7c-36.3,29-61.6,71.9-67.2,121.7c-5.6,49.9,9.5,97.3,38.5,133.6l8.1,10.1c29,36.3,71.9,61.6,121.7,67.2
		c49.9,5.6,97.3-9.5,133.6-38.5l809-645.6l18.7,23.4c16.9,21.2,51.7,21.7,77.6,1C1234.4,1361,1241.6,1327.1,1224.7,1305.8z
		 M704.9,1632.4l-186.2-233.3l383-305.6l186.2,233.3L704.9,1632.4z"/>
	<g id="XMLID_74_">
		<path id="XMLID_101_" class="st0" d="M1090,1318.1c-35.7-55.3,2.6-109.7,35.7-138.3c49.2-42.6,112.5-50.4,141.8-16.8
			c0.6,0.7-27.4-31.3-31-35.5c-29.3-33.5-92.8-26-141.8,16.8c-49,42.8-65,104.7-35.7,138.3C1062.7,1286.8,1091,1319.5,1090,1318.1z"
			/>
		<path id="XMLID_100_" class="st0" d="M1104.1,1325.2c30.6,29.2,91.1,20.7,138.3-20.5c3.9-3.4,7.5-6.9,11-10.5l-47.8-19.9
			l-106.2-44.1c-0.1-0.1-0.2-0.2-0.2-0.3c0,0.1-0.1,0.1-0.1,0.2c-17.4,33.7-18.1,68.9,1.5,91.4
			C1101.7,1322.8,1102.9,1324,1104.1,1325.2z"/>
		<path id="XMLID_75_" class="st0" d="M1113.7,1207.6l116.2,48.3l39.4,16.4c19.7-34.3,22.1-71.1,3.2-94.9c-0.6-0.7-1.1-1.4-1.7-2.1
			c-29.3-33.5-92.8-26-141.8,16.8c-5.6,4.9-10.8,10.1-15.5,15.4c0,0-0.1,0.1-0.1,0.1C1113.5,1207.6,1113.6,1207.6,1113.7,1207.6z"/>
	</g>
	<g id="XMLID_58_">
		<path id="XMLID_63_" class="st0" d="M2187.5,2098.5c-38.6,17.9-69.9-11.6-85.2-35.3c-22.8-35.3-22-76.5,2-92.2
			c0.5-0.3-22.5,14.7-25.5,16.6c-24.1,15.7-25,57-2,92.2c23,35.2,61.1,51,85.2,35.3C2165,2113.1,2188.5,2098,2187.5,2098.5z"/>
		<path id="XMLID_62_" class="st0" d="M2193.3,2090.1c21.5-16.9,21.5-56.4-0.6-90.3c-1.8-2.8-3.7-5.4-5.7-8l-17,28.8l-37.8,63.9
			c-0.1,0-0.2,0.1-0.2,0.1c0,0,0.1,0,0.1,0.1c20,14.2,42.5,17.8,58.6,7.3C2191.5,2091.4,2192.4,2090.8,2193.3,2090.1z"/>
		<path id="XMLID_61_" class="st0" d="M2119,2073.4l41.4-69.9l14-23.7c-20.2-15.7-43.5-20.5-60.4-10.6c-0.5,0.3-1,0.6-1.5,0.9
			c-24.1,15.7-25,57-2,92.2c2.6,4,5.5,7.8,8.4,11.3c0,0,0,0,0,0.1C2118.9,2073.5,2118.9,2073.4,2119,2073.4z"/>
	</g>
</g>
</svg>
