<?xml version="1.0" encoding="utf-8"?>
<!-- Generator: Adobe Illustrator 19.0.0, SVG Export Plug-In . SVG Version: 6.00 Build 0)  -->
<svg version="1.1" id="Warstwa_1" xmlns="http://www.w3.org/2000/svg" xmlns:xlink="http://www.w3.org/1999/xlink" x="0px" y="0px"
	 viewBox="0 0 2700 2700" style="enable-background:new 0 0 2700 2700;" xml:space="preserve">
<style type="text/css">
	.st0{fill:none;stroke:#3F403F;stroke-width:6;stroke-miterlimit:10;}
	.st1{font-family:'MyriadPro-Regular';}
	.st2{font-size:301.0683px;}
</style>
<g id="XMLID_24_">
	<g id="XMLID_27_">
		<path id="XMLID_30_" class="st0" d="M2565.2,1098.3c-57.8,0-104.8,47-104.8,104.7v34.9H226.5v-34.9c0-57.7-46.9-104.7-104.8-104.7
			c-57.8,0-104.7,47-104.7,104.7v1165.4c0,57.9,46.9,104.7,104.7,104.7c57.8,0,104.8-46.9,104.8-104.7v-8.1h2233.9v8.1
			c0,57.9,47,104.7,104.8,104.7s104.7-46.9,104.7-104.7V1203.1C2669.9,1145.3,2623,1098.3,2565.2,1098.3z M688.3,1340.1h177.3v639
			H688.3V1340.1z M607.7,1979.1H473.5v-639h134.3V1979.1z M946.1,1340.1h177.2v639H946.1V1340.1z M1203.8,1340.1H1467v639h-263.2
			V1340.1z M1547.5,1340.1h134.3v639h-134.3V1340.1z M1762.3,1340.1h177.3v639h-177.3V1340.1z M2020.1,1340.1h177.3v639h-177.3
			V1340.1z M226.5,1340.1h166.4v639H226.5V1340.1z M2277.8,1979.1v-639h182.6v639H2277.8z"/>
		<path id="XMLID_11_" class="st0" d="M215.7,1004.5c0-52-42.1-94.1-94-94.1c-51.9,0-93.9,42.1-93.9,94.1
			c0,51.8,42.1,93.9,93.9,93.9C173.7,1098.3,215.7,1056.3,215.7,1004.5z"/>
		<path id="XMLID_6_" class="st0" d="M2575.9,1098.3c51.9,0,94-42.1,94-93.9c0-52-42.1-94.1-94-94.1c-51.8,0-93.9,42.1-93.9,94.1
			C2482,1056.3,2524.1,1098.3,2575.9,1098.3z"/>
	</g>
	<text id="XMLID_4_" transform="matrix(1 0 0 1 601.3198 590.9443)" class="st0 st1 st2">z</text>
	<text id="XMLID_13_" transform="matrix(1 0 0 1 776.9385 783.291)" class="st0 st1 st2">z</text>
</g>
</svg>
