<?xml version="1.0" encoding="iso-8859-1"?>
<!-- Generator: Adobe Illustrator 19.0.0, SVG Export Plug-In . SVG Version: 6.00 Build 0)  -->
<svg version="1.1" id="Layer_1" xmlns="http://www.w3.org/2000/svg" xmlns:xlink="http://www.w3.org/1999/xlink" x="0px" y="0px"
	 viewBox="0 0 512 512" style="enable-background:new 0 0 512 512;" xml:space="preserve">
<g>
	<g>
		<g>
			<path d="M378.146,278.521c-5.271-2.656-11.625-0.563-14.313,4.646c-0.083,0.156-8.188,15.5-22.5,15.5
				c-14.313,0-22.417-15.344-22.458-15.438c-2.646-5.281-9.042-7.396-14.313-4.771c-5.271,2.635-7.396,9.042-4.771,14.313
				c0.563,1.115,13.938,27.229,41.542,27.229c27.604,0,40.979-26.115,41.542-27.229C385.5,287.521,383.375,281.177,378.146,278.521z
				"/>
			<path d="M207.479,278.521c-5.271-2.656-11.625-0.563-14.313,4.646c-0.083,0.156-8.188,15.5-22.5,15.5
				s-22.417-15.344-22.458-15.438c-2.646-5.281-9.021-7.396-14.313-4.771c-5.271,2.635-7.396,9.042-4.771,14.313
				c0.563,1.115,13.938,27.229,41.542,27.229c27.604,0,40.979-26.115,41.542-27.229
				C214.833,287.521,212.708,281.177,207.479,278.521z"/>
			<path d="M256,384c-11.771,0-21.333,9.573-21.333,21.333c0,11.76,9.563,21.333,21.333,21.333c11.771,0,21.333-9.573,21.333-21.333
				C277.333,393.573,267.771,384,256,384z"/>
			<path d="M480,42.667h4.083l-13.625,27.229c-1.646,3.302-1.479,7.229,0.458,10.375c1.958,3.146,5.396,5.063,9.083,5.063h21.333
				c5.896,0,10.667-4.771,10.667-10.667C512,68.771,507.229,64,501.333,64h-4.083l13.625-27.229
				c1.646-3.302,1.479-7.229-0.458-10.375c-1.958-3.146-5.396-5.063-9.083-5.063H480c-5.896,0-10.667,4.771-10.667,10.667
				C469.333,37.896,474.104,42.667,480,42.667z"/>
			<path d="M426.667,96h1.396l-10.271,15.417c-2.188,3.271-2.396,7.479-0.521,10.948c1.854,3.469,5.458,5.635,9.396,5.635H448
				c5.896,0,10.667-4.771,10.667-10.667c0-5.896-4.771-10.667-10.667-10.667h-1.396l10.271-15.417
				c2.188-3.271,2.396-7.479,0.521-10.948c-1.854-3.469-5.458-5.635-9.396-5.635h-21.333c-5.896,0-10.667,4.771-10.667,10.667
				C416,91.229,420.771,96,426.667,96z"/>
			<path d="M475.344,256.417c-17.389-82.859-83.143-146.035-166.648-165.039c-0.241-0.035-0.464-0.13-0.706-0.148
				c-16.724-3.753-34.091-5.896-51.99-5.896c-11.018,0-21.801,0.931-32.409,2.382c-14.173-16.582-13.599-41.533,2.086-57.21
				c11.958-11.974,32.792-11.974,44.75,0c9.042,9.047,9.042,23.77,0,32.818c-4.167,4.164-4.167,10.911,0,15.076
				c4.167,4.164,10.917,4.164,15.083,0c17.375-17.357,17.375-45.613,0-62.97C274.849,4.761,259.948-0.644,245.328,0.061
				c-12.806,0.618-25.396,6.023-34.734,15.367c-20.728,20.727-23.876,52.219-9.944,76.508
				C118.4,111.66,53.862,174.43,36.656,256.417C15.969,259.354,0,277.177,0,298.667c0,21.49,15.969,39.313,36.656,42.25
				C57.573,440.583,148.375,512,256,512s198.427-71.417,219.344-171.083c20.688-2.938,36.656-20.76,36.656-42.25
				C512,277.177,496.031,259.354,475.344,256.417z M469.531,320.01l-2.135-0.26c-5.594-0.625-10.542,3.385-11.448,8.875
				C440.375,422.521,356.281,490.667,256,490.667S71.625,422.521,56.052,328.625c-0.854-5.167-7.031-8.667-12.375-8.667
				c-0.344,0-0.677,0.01-1.01,0.042c-11.76,0-21.333-9.573-21.333-21.333c0-11.76,9.573-21.333,21.135-21.344l2.135,0.26
				c5.354,0.448,10.542-3.385,11.448-8.875c13.484-81.301,78.374-143.207,160.628-158.375C230.753,121.832,247.702,128,264.885,128
				c15.525,0,30.995-5.035,44.4-14.656c75.561,19.27,133.951,78.717,146.663,155.365c0.906,5.49,5.833,9.292,11.448,8.875
				l1.938-0.25c11.76,0,21.333,9.573,21.333,21.333C490.667,310.427,481.094,320,469.531,320.01z"/>
		</g>
	</g>
</g>
<g>
</g>
<g>
</g>
<g>
</g>
<g>
</g>
<g>
</g>
<g>
</g>
<g>
</g>
<g>
</g>
<g>
</g>
<g>
</g>
<g>
</g>
<g>
</g>
<g>
</g>
<g>
</g>
<g>
</g>
</svg>
