<?xml version="1.0" encoding="utf-8"?>
<!-- Generator: Adobe Illustrator 19.0.0, SVG Export Plug-In . SVG Version: 6.00 Build 0)  -->
<svg version="1.1" id="Warstwa_1" xmlns="http://www.w3.org/2000/svg" xmlns:xlink="http://www.w3.org/1999/xlink" x="0px" y="0px"
	 viewBox="0 0 2700 2700" style="enable-background:new 0 0 2700 2700;" xml:space="preserve">
<style type="text/css">
	.st0{fill:none;stroke:#3F403F;stroke-width:6;stroke-miterlimit:10;}
</style>
<g id="XMLID_77_">
	<path id="XMLID_85_" class="st0" d="M1383.2,1238.5c7.7,7.7,18.2,12.2,29.2,12.2H2655c11.8,0,22.9-5.1,30.8-13.8
		c7.8-8.7,11.7-20.4,10.4-32.1c-35.4-333-191.1-638.5-438-860.3C2010.9,122.4,1689.9,0,1354.1,0c-307,0-607.5,105.9-846.4,298.3
		c-9.2,7.3-14.7,18.2-15.4,30c-0.6,11.7,3.9,23.2,12.1,31.4L1383.2,1238.5z M1215.5,766.5l356.4-530.1
		c41.1,8.1,81.6,18.3,121.3,30.8l-390,587L1215.5,766.5z M1354.1,215.4c10.6,0,21.3,0.1,32.2,0.5l-290,431.3l-93.9-93.9l232.2-331.6
		C1274.1,217.5,1314.4,215.4,1354.1,215.4L1354.1,215.4z M996.4,272.8l-113,161.4l-77.9-77.8c50.4-27.8,103.2-51.9,157.3-71.8
		C973.8,280.5,985,276.6,996.4,272.8L996.4,272.8z M2052.8,1035.3l227-341.4c15.4,22,30.6,44.7,44.7,68.1l-187.7,273.4H2052.8z
		 M2337.8,1035.3l71.2-103.7c13.5,34,25.4,68.7,35.5,103.7H2337.8z M1719.2,1035.3l367-552.1c11.9,9.9,23.3,20,34.1,29.9
		c16.4,15,32.8,31.1,48.9,47.7l-315.1,474.4H1719.2z M1520.4,1035.3h-36.1l-61.7-61.6l427.9-644c34.8,17,68.9,35.7,101.5,56
		L1520.4,1035.3z M1520.4,1035.3"/>
	<path id="XMLID_81_" class="st0" d="M1205.2,1341.7L363.8,500.3c-8.3-8.3-19.8-12.7-31.5-12.1c-11.7,0.6-22.7,6.3-30,15.5
		C109.9,742.5,4.1,1043,4.1,1350c0,420.5,190.6,809.4,523,1067.3c7.4,5.5,16.3,8.6,25.4,8.6c2.5,0,4.9-0.1,7.5-0.7
		c11.5-2.2,21.6-9,27.8-19.1l623.3-1013.4C1221.2,1376.3,1218.7,1355.3,1205.2,1341.7L1205.2,1341.7z M955.8,1396.8L515,2113.6
		c-68.8-75.4-126.6-159.1-172.6-249.2c-81.6-160.1-123-333.2-123-514.4c0-134.6,23.2-266.2,69.2-391.2
		c19.9-54.1,44-106.9,71.8-157.3L955.8,1396.8z M955.8,1396.8"/>
	<path id="XMLID_78_" class="st0" d="M2655,1449.3H1432.8c-14.4,0-27.7,7.5-35.3,19.7L757,2510.5c-6.2,10-7.8,22.1-4.5,33.5
		c3.3,11.2,11.2,20.6,22,25.6c181.6,86.6,376.6,130.5,579.5,130.5c335.8,0,656.8-122.3,904.2-344.4
		c246.9-221.8,402.6-527.4,438-860.4c1.2-11.8-2.5-23.3-10.4-32C2677.9,1454.4,2666.8,1449.3,2655,1449.3L2655,1449.3z M2655,1449.3
		"/>
</g>
</svg>
