<?xml version="1.0" encoding="utf-8"?>
<!-- Generator: Adobe Illustrator 19.0.0, SVG Export Plug-In . SVG Version: 6.00 Build 0)  -->
<svg version="1.1" id="Warstwa_1" xmlns="http://www.w3.org/2000/svg" xmlns:xlink="http://www.w3.org/1999/xlink" x="0px" y="0px"
	 viewBox="0 0 2700 2700" style="enable-background:new 0 0 2700 2700;" xml:space="preserve">
<style type="text/css">
	.st0{fill:none;stroke:#3F403F;stroke-width:6;stroke-miterlimit:10;}
</style>
<path id="XMLID_37_" class="st0" d="M2506.4,409.9h-431.8V185.1c0-101-77.4-183.1-172.7-183.1c-95.4,0-172.8,82.1-172.8,183.1v224.9
	H951.8V185.1C951.8,84.1,874.4,2,779.1,2c-95.3,0-172.7,82.1-172.7,183.1v224.9H174.5C103,409.9,45,471.4,45,547.2v1990.6
	c0,75.8,58,137.3,129.5,137.3h2331.9c71.6,0,129.5-61.5,129.5-137.3V547.2C2635.9,471.4,2578,409.9,2506.4,409.9z M671.2,2400.5
	h-367v-369.8h367V2400.5z M671.2,1847.6h-367v-274.6h367V1847.6z M671.2,1390h-367v-366.1h367V1390z M1254.1,2400.5H843.9v-369.8
	h410.3V2400.5z M1254.1,1847.6H843.9v-274.6h410.3V1847.6z M1254.1,1390H843.9v-366.1h410.3V1390z M1837.1,2400.5h-410.2v-369.8
	h410.2V2400.5z M1837.1,1847.6h-410.2v-274.6h410.2V1847.6z M1837.1,1390h-410.2v-366.1h410.2V1390z M2376.9,2400.5h-367.1v-369.8
	h367.1V2400.5z M2376.9,1847.6h-367.1v-274.6h367.1V1847.6z M2376.9,1390h-367.1v-366.1h367.1V1390z"/>
</svg>
